<svg width="52" height="24" viewBox="0 0 52 24" fill="none" xmlns="http://www.w3.org/2000/svg">
<g clip-path="url(#clip0_42_54)">
<path fill-rule="evenodd" clip-rule="evenodd" d="M39.9633 0C33.3578 0 28 5.3578 28 11.9633C28 17.2477 31.4495 21.7248 36.1468 23.3394C36.7339 23.4128 36.9541 23.0459 36.9541 22.7523C36.9541 22.4587 36.9541 21.7248 36.9541 20.6972C33.6514 21.4312 32.9174 19.0826 32.9174 19.0826C32.4037 17.6881 31.5963 17.3211 31.5963 17.3211C30.4954 16.5872 31.6697 16.5872 31.6697 16.5872C32.844 16.6605 33.5046 17.8349 33.5046 17.8349C34.6055 19.6697 36.2936 19.156 36.9541 18.8624C37.0275 18.055 37.3945 17.5413 37.6881 17.2477C35.0459 16.9541 32.2569 15.9266 32.2569 11.3028C32.2569 9.98165 32.6972 8.95413 33.5046 8.07339C33.4312 7.85321 32.9908 6.6055 33.6514 4.99083C33.6514 4.99083 34.6789 4.69725 36.9541 6.23853C37.9083 5.94495 38.9358 5.87156 39.9633 5.87156C40.9908 5.87156 42.0183 6.01835 42.9725 6.23853C45.2477 4.69725 46.2752 4.99083 46.2752 4.99083C46.9358 6.6055 46.4954 7.85321 46.422 8.14679C47.156 8.95413 47.6697 10.055 47.6697 11.3761C47.6697 16 44.8807 16.9541 42.2385 17.2477C42.6789 17.6147 43.0459 18.3486 43.0459 19.4495C43.0459 21.0642 43.0459 22.3119 43.0459 22.7523C43.0459 23.0459 43.2661 23.4128 43.8532 23.3394C48.6239 21.7248 52 17.2477 52 11.9633C51.9266 5.3578 46.5688 0 39.9633 0Z" fill="#027EC5"/>
</g>
<path fill-rule="evenodd" clip-rule="evenodd" d="M17.7189 13.1016L13.6206 10.7031L14.8259 10L21 13.6016L14.8259 17.2031L13.6206 16.5L17.7054 14.1172L17.706 14.1016H0.428589V13.1016H17.7189Z" fill="#027EC5"/>
<defs>
<clipPath id="clip0_42_54">
<rect width="24" height="24" fill="white" transform="translate(28)"/>
</clipPath>
</defs>
</svg>
