<svg width="300" height="300" viewBox="0 0 300 300" fill="none" xmlns="http://www.w3.org/2000/svg">
<path fill-rule="evenodd" clip-rule="evenodd" d="M149.541 0C66.9725 0 0 66.9725 0 149.541C0 215.596 43.1193 271.56 101.835 291.743C109.174 292.661 111.927 288.073 111.927 284.404C111.927 280.734 111.927 271.56 111.927 258.716C70.6422 267.89 61.4679 238.532 61.4679 238.532C55.0459 221.101 44.9541 216.514 44.9541 216.514C31.1927 207.339 45.8716 207.339 45.8716 207.339C60.5505 208.257 68.8073 222.936 68.8073 222.936C82.5688 245.872 103.67 239.45 111.927 235.78C112.844 225.688 117.431 219.266 121.101 215.596C88.0734 211.927 53.211 199.083 53.211 141.284C53.211 124.771 58.7156 111.927 68.8073 100.917C67.8899 98.1651 62.3853 82.5688 70.6422 62.3853C70.6422 62.3853 83.4862 58.7156 111.927 77.9816C123.853 74.3119 136.697 73.3945 149.541 73.3945C162.385 73.3945 175.229 75.2294 187.156 77.9816C215.596 58.7156 228.44 62.3853 228.44 62.3853C236.697 82.5688 231.193 98.1651 230.275 101.835C239.45 111.927 245.872 125.688 245.872 142.202C245.872 200 211.009 211.927 177.982 215.596C183.486 220.183 188.073 229.358 188.073 243.119C188.073 263.303 188.073 278.899 188.073 284.404C188.073 288.073 190.826 292.661 198.165 291.743C257.798 271.56 300 215.596 300 149.541C299.083 66.9725 232.11 0 149.541 0Z" fill="#C5C5C5"/>
</svg>
