<svg width="20" height="20" viewBox="0 0 20 20" fill="none" xmlns="http://www.w3.org/2000/svg">
<path fill-rule="evenodd" clip-rule="evenodd" d="M6.95316 3.14472C4.32935 4.31263 2.5 6.94268 2.5 10C2.5 14.1421 5.85786 17.5 10 17.5C14.1421 17.5 17.5 14.1421 17.5 10C17.5 6.6565 15.3122 3.824 12.29 2.85604L11.9121 4.0479C14.4286 4.85569 16.25 7.21514 16.25 10C16.25 13.4518 13.4518 16.25 10 16.25C6.54822 16.25 3.75 13.4518 3.75 10C3.75 7.88881 4.79677 6.0221 6.39962 4.89058L6.95316 3.14472Z" fill="#909090"/>
<path fill-rule="evenodd" clip-rule="evenodd" d="M5 3H2V2H5.5L6 2.5V6H5V3Z" fill="#909090"/>
</svg>
