<svg width="24" height="24" viewBox="0 0 24 24" fill="none" xmlns="http://www.w3.org/2000/svg">
<path d="M20.9999 6.00001C21.0011 5.43668 20.8436 4.88442 20.5455 4.40644C20.2473 3.92846 19.8207 3.54406 19.3143 3.29726C18.8079 3.05046 18.2423 2.95122 17.6821 3.0109C17.122 3.07059 16.5899 3.28678 16.1469 3.63473C15.7039 3.98269 15.3678 4.44835 15.1771 4.97841C14.9864 5.50848 14.9488 6.08152 15.0686 6.63197C15.1884 7.18241 15.4607 7.688 15.8544 8.09088C16.2482 8.49375 16.7474 8.77762 17.2949 8.91001V10.5C17.2973 10.6372 17.2605 10.7722 17.1887 10.8891C17.117 11.006 17.0133 11.1 16.8899 11.16L12.7349 13.32L8.59495 11.22C8.46307 11.1544 8.35394 11.0507 8.28173 10.9223C8.20951 10.7939 8.17754 10.6468 8.18995 10.5V8.91001C8.89694 8.72746 9.51309 8.29333 9.9229 7.689C10.3327 7.08467 10.508 6.35162 10.416 5.62725C10.324 4.90289 9.971 4.23696 9.42312 3.75426C8.87524 3.27157 8.17013 3.00527 7.43995 3.00527C6.70977 3.00527 6.00465 3.27157 5.45677 3.75426C4.90889 4.23696 4.55587 4.90289 4.46386 5.62725C4.37185 6.35162 4.54719 7.08467 4.957 7.689C5.36681 8.29333 5.98295 8.72746 6.68995 8.91001V10.5C6.69081 10.9156 6.80602 11.323 7.02297 11.6776C7.23992 12.0321 7.55024 12.3201 7.91995 12.51L11.9999 14.61V16.59C11.293 16.7726 10.6768 17.2067 10.267 17.811C9.85719 18.4153 9.68185 19.1484 9.77386 19.8728C9.86587 20.5971 10.2189 21.2631 10.7668 21.7457C11.3147 22.2284 12.0198 22.4947 12.7499 22.4947C13.4801 22.4947 14.1852 22.2284 14.7331 21.7457C15.281 21.2631 15.634 20.5971 15.726 19.8728C15.818 19.1484 15.6427 18.4153 15.2329 17.811C14.8231 17.2067 14.2069 16.7726 13.4999 16.59V14.61L17.5499 12.57C17.9312 12.3784 18.2496 12.0816 18.4675 11.7148C18.6855 11.348 18.7939 10.9265 18.7799 10.5V8.88001C19.4143 8.70922 19.975 8.33496 20.376 7.81469C20.7771 7.29442 20.9963 6.6569 20.9999 6.00001ZM5.99995 6.00001C5.99995 5.70333 6.08792 5.41332 6.25274 5.16665C6.41757 4.91998 6.65183 4.72772 6.92592 4.61419C7.20001 4.50065 7.50161 4.47095 7.79258 4.52883C8.08356 4.5867 8.35083 4.72957 8.56061 4.93934C8.77039 5.14912 8.91325 5.4164 8.97113 5.70737C9.029 5.99834 8.9993 6.29994 8.88577 6.57403C8.77224 6.84812 8.57998 7.08239 8.3333 7.24721C8.08663 7.41203 7.79662 7.50001 7.49995 7.50001C7.10212 7.50001 6.72059 7.34197 6.43929 7.06067C6.15798 6.77936 5.99995 6.39783 5.99995 6.00001ZM14.2049 19.5C14.2049 19.7967 14.117 20.0867 13.9522 20.3334C13.7873 20.58 13.5531 20.7723 13.279 20.8858C13.0049 20.9994 12.7033 21.0291 12.4123 20.9712C12.1213 20.9133 11.8541 20.7704 11.6443 20.5607C11.4345 20.3509 11.2916 20.0836 11.2338 19.7926C11.1759 19.5017 11.2056 19.2001 11.3191 18.926C11.4327 18.6519 11.6249 18.4176 11.8716 18.2528C12.1183 18.088 12.4083 18 12.7049 18C12.9019 18 13.097 18.0388 13.279 18.1142C13.461 18.1896 13.6263 18.3001 13.7656 18.4393C13.9049 18.5786 14.0154 18.744 14.0908 18.926C14.1662 19.108 14.2049 19.303 14.2049 19.5ZM17.9999 7.50001C17.7033 7.50001 17.4133 7.41203 17.1666 7.24721C16.9199 7.08239 16.7277 6.84812 16.6141 6.57403C16.5006 6.29994 16.4709 5.99834 16.5288 5.70737C16.5866 5.4164 16.7295 5.14912 16.9393 4.93934C17.1491 4.72957 17.4163 4.5867 17.7073 4.52883C17.9983 4.47095 18.2999 4.50065 18.574 4.61419C18.8481 4.72772 19.0823 4.91998 19.2472 5.16665C19.412 5.41332 19.4999 5.70333 19.4999 6.00001C19.4999 6.39783 19.3419 6.77936 19.0606 7.06067C18.7793 7.34197 18.3978 7.50001 17.9999 7.50001Z" fill="#919191"/>
</svg>
