<svg width="24" height="24" viewBox="0 0 24 24" fill="none" xmlns="http://www.w3.org/2000/svg">
<path fill-rule="evenodd" clip-rule="evenodd" d="M21 15V2.25L20.25 1.5H5.61002C5.26599 1.50381 4.9255 1.56987 4.60502 1.695C4.28197 1.83856 3.99084 2.0452 3.74871 2.30278C3.50659 2.56036 3.31834 2.8637 3.19502 3.195C3.07232 3.49004 3.00617 3.80552 3.00002 4.125V18.375C2.99641 18.7197 3.06275 19.0616 3.19502 19.38C3.46074 20.021 3.96686 20.5325 4.60502 20.805C4.9255 20.9301 5.26599 20.9962 5.61002 21H6.00002V19.5H5.61002C5.46035 19.5005 5.31221 19.4698 5.17502 19.41C4.90345 19.2974 4.68766 19.0816 4.57502 18.81C4.52709 18.6699 4.50177 18.5231 4.50002 18.375V17.625C4.50177 17.4769 4.52709 17.3301 4.57502 17.19C4.68766 16.9184 4.90345 16.7026 5.17502 16.59C5.31016 16.5311 5.45591 16.5005 5.60329 16.5H5.61002H5.99997H19.5V19.5H13.5V21H20.25L21 20.25V16.5V15ZM5.99997 15V3H19.5V15H5.99997ZM7.49997 4.5H8.99997V6H7.49997V4.5ZM7.49997 7.5H8.99997V9H7.49997V7.5ZM8.99997 10.5H7.49997V12H8.99997V10.5ZM9.74997 20.235L7.91997 22.5H7.49997V18H12V22.5H11.58L9.74997 20.235Z" fill="#027EC5"/>
</svg>
