<svg width="20" height="20" viewBox="0 0 20 20" fill="none" xmlns="http://www.w3.org/2000/svg">
<path fill-rule="evenodd" clip-rule="evenodd" d="M11 2.25H9C7.34315 2.25 6 3.59315 6 5.25V8H5V5.25C5 3.04086 6.79086 1.25 9 1.25H11C13.2091 1.25 15 3.04086 15 5.25V8H14V5.25C14 3.59315 12.6569 2.25 11 2.25ZM12.2009 15H13.9048C13.1757 15.7698 12.1439 16.25 11 16.25H9C7.85607 16.25 6.82429 15.7698 6.09525 15H7.79914C8.16685 15.1608 8.57301 15.25 9 15.25H11C11.427 15.25 11.8332 15.1608 12.2009 15ZM2.5 10L3.75 8.75H16.25L17.5 10V17.5L16.25 18.75H3.75L2.5 17.5V10ZM3.75 10V17.5H16.25V10H3.75Z" fill="#909090"/>
</svg>
