<svg width="20" height="20" viewBox="0 0 20 20" fill="none" xmlns="http://www.w3.org/2000/svg">
<path fill-rule="evenodd" clip-rule="evenodd" d="M6.25 6.04167C6.25 3.81674 7.85144 2.08333 10 2.08333C11.7325 2.08333 13.0917 3.20078 13.5681 4.78509C13.6676 5.11564 14.0161 5.30302 14.3467 5.20362C14.6772 5.10421 14.8646 4.75566 14.7652 4.4251C14.1424 2.35414 12.3265 0.833334 10 0.833334C7.08595 0.833334 5 3.20398 5 6.04167V7.5H4.58333C3.43274 7.5 2.5 8.43274 2.5 9.58333V16.25C2.5 17.4006 3.43274 18.3333 4.58333 18.3333H15.4167C16.5673 18.3333 17.5 17.4006 17.5 16.25V9.58333C17.5 8.43274 16.5673 7.5 15.4167 7.5H6.25V6.04167ZM3.75 9.58333C3.75 9.1231 4.1231 8.75 4.58333 8.75H15.4167C15.8769 8.75 16.25 9.1231 16.25 9.58333V16.25C16.25 16.7102 15.8769 17.0833 15.4167 17.0833H4.58333C4.1231 17.0833 3.75 16.7102 3.75 16.25V9.58333Z" fill="#909090"/>
</svg>
